<?xml version="1.0" ?>
<svg xmlns="http://www.w3.org/2000/svg" xmlns:xlink="http://www.w3.org/1999/xlink" version="1.0" viewBox="0 0 48 48" enable-background="new 0 0 48 48" xml:space="preserve"><g id="Layer_1"/><g id="_x31_1_x5F_Calculato"><g><path d="M40,3H8C7.448,3,7,3.448,7,4v39c0,0.553,0.448,1,1,1h32c0.553,0,1-0.447,1-1V4C41,3.448,40.553,3,40,3z M39,5v25H25V18h11    c0.553,0,1-0.448,1-1V7c0-0.552-0.447-1-1-1H12c-0.552,0-1,0.448-1,1v10c0,0.552,0.448,1,1,1h11v12H9V5H39z M13,16V8h22v8H13z     M9,32h14v10H9V32z M25,42V32h14v10H25z"/><path d="M12,25h3v3c0,0.553,0.448,1,1,1s1-0.447,1-1v-3h3c0.552,0,1-0.448,1-1s-0.448-1-1-1h-3v-3c0-0.552-0.448-1-1-1    s-1,0.448-1,1v3h-3c-0.552,0-1,0.448-1,1S11.448,25,12,25z"/><path d="M35,36h-6c-0.553,0-1,0.447-1,1s0.447,1,1,1h6c0.553,0,1-0.447,1-1S35.553,36,35,36z"/><path d="M36,23h-8c-0.553,0-1,0.448-1,1s0.447,1,1,1h8c0.553,0,1-0.448,1-1S36.553,23,36,23z"/><path d="M21,13h-6c-0.552,0-1,0.448-1,1s0.448,1,1,1h6c0.552,0,1-0.448,1-1S21.552,13,21,13z"/><path d="M21,9h-6c-0.552,0-1,0.448-1,1s0.448,1,1,1h6c0.552,0,1-0.448,1-1S21.552,9,21,9z"/><path d="M31,35h2c0.553,0,1-0.447,1-1s-0.447-1-1-1h-2c-0.553,0-1,0.447-1,1S30.447,35,31,35z"/><path d="M33,39h-2c-0.553,0-1,0.447-1,1s0.447,1,1,1h2c0.553,0,1-0.447,1-1S33.553,39,33,39z"/><path d="M17.414,37l1.793-1.793c0.391-0.391,0.391-1.023,0-1.414s-1.023-0.391-1.414,0L16,35.586l-1.793-1.793    c-0.391-0.391-1.023-0.391-1.414,0s-0.391,1.023,0,1.414L14.586,37l-1.793,1.793c-0.391,0.391-0.391,1.023,0,1.414    c0.195,0.195,0.451,0.293,0.707,0.293s0.512-0.098,0.707-0.293L16,38.414l1.793,1.793c0.195,0.195,0.451,0.293,0.707,0.293    s0.512-0.098,0.707-0.293c0.391-0.391,0.391-1.023,0-1.414L17.414,37z"/></g></g></svg>